<?xml version="1.0" encoding="UTF-8"?>
<!DOCTYPE svg PUBLIC "-//W3C//DTD SVG 1.1//EN" "http://www.w3.org/Graphics/SVG/1.1/DTD/svg11.dtd">
<!-- Creator: CorelDRAW 2021 (64-Bit) -->
<svg xmlns="http://www.w3.org/2000/svg" xml:space="preserve" width="54px" height="54px" version="1.1" style="shape-rendering:geometricPrecision; text-rendering:geometricPrecision; image-rendering:optimizeQuality; fill-rule:evenodd; clip-rule:evenodd"
viewBox="0 0 11.6 11.6"
 xmlns:xlink="http://www.w3.org/1999/xlink"
 xmlns:xodm="http://www.corel.com/coreldraw/odm/2003">
 <defs>
  <style type="text/css">
   <![CDATA[
    .fil0 {fill:none}
    .fil1 {fill:#EFF7FF;fill-rule:nonzero}
   ]]>
  </style>
 </defs>
 <g id="Слой_x0020_1">
  <metadata id="CorelCorpID_0Corel-Layer"/>
  <polygon class="fil0" points="0,0 11.6,0 11.6,11.6 0,11.6 "/>
  <path class="fil1" d="M5.8 3.38c-1.33,0 -2.42,1.09 -2.42,2.42 0,1.33 1.09,2.42 2.42,2.42 1.33,0 2.42,-1.09 2.42,-2.42 0,-1.33 -1.09,-2.42 -2.42,-2.42zm-4.83 2.9l0.96 0c0.27,0 0.49,-0.21 0.49,-0.48 0,-0.27 -0.22,-0.48 -0.49,-0.48l-0.96 0c-0.27,0 -0.49,0.21 -0.49,0.48 0,0.27 0.22,0.48 0.49,0.48zm8.7 0l0.96 0c0.27,0 0.49,-0.21 0.49,-0.48 0,-0.27 -0.22,-0.48 -0.49,-0.48l-0.96 0c-0.27,0 -0.49,0.21 -0.49,0.48 0,0.27 0.22,0.48 0.49,0.48zm-4.35 -5.31l0 0.96c0,0.27 0.21,0.49 0.48,0.49 0.27,0 0.48,-0.22 0.48,-0.49l0 -0.96c0,-0.27 -0.21,-0.49 -0.48,-0.49 -0.27,0 -0.48,0.22 -0.48,0.49zm0 8.7l0 0.96c0,0.27 0.21,0.49 0.48,0.49 0.27,0 0.48,-0.22 0.48,-0.49l0 -0.96c0,-0.27 -0.21,-0.49 -0.48,-0.49 -0.27,0 -0.48,0.22 -0.48,0.49zm-2.42 -7.46c-0.1,-0.09 -0.22,-0.14 -0.35,-0.14 -0.12,0 -0.25,0.05 -0.34,0.14 -0.09,0.09 -0.14,0.22 -0.14,0.34 0,0.13 0.05,0.25 0.14,0.35l0.52 0.51c0.18,0.19 0.49,0.19 0.68,0 0.18,-0.19 0.19,-0.5 0,-0.68l-0.51 -0.52zm5.96 5.98c-0.09,-0.09 -0.22,-0.14 -0.34,-0.14 -0.13,0 -0.25,0.05 -0.34,0.14 -0.09,0.09 -0.14,0.22 -0.14,0.34 0,0.13 0.05,0.25 0.14,0.34l0.51 0.52c0.19,0.18 0.5,0.18 0.68,0 0.09,-0.09 0.14,-0.22 0.14,-0.34 0,-0.13 -0.05,-0.26 -0.14,-0.35l-0.51 -0.51 0 0zm0.53 -5.26c0.09,-0.09 0.14,-0.21 0.14,-0.34 0,-0.13 -0.05,-0.25 -0.14,-0.34 -0.09,-0.09 -0.21,-0.14 -0.34,-0.14 -0.13,0 -0.25,0.05 -0.34,0.14l-0.51 0.51c-0.19,0.19 -0.19,0.5 0,0.68 0.19,0.19 0.5,0.19 0.68,0l0.51 -0.51zm-5.98 5.94c0.09,-0.09 0.14,-0.21 0.14,-0.34 0,-0.12 -0.05,-0.25 -0.14,-0.34 -0.09,-0.09 -0.22,-0.14 -0.34,-0.14 -0.13,0 -0.25,0.05 -0.34,0.14l-0.52 0.51c-0.18,0.19 -0.18,0.5 0,0.69 0.19,0.18 0.5,0.18 0.69,0l0.51 -0.52 0 0z"/>
 </g>
</svg>
